HIERARCHY
ROOT root
{
	OFFSET	0	13.1	24.9
	CHANNELS 6  Xposition Yposition Zposition Xrotation Yrotation Zrotation
	JOINT spine_1
	{
		OFFSET	0	9.99999	0
		CHANNELS 3  Xrotation Yrotation Zrotation
		JOINT spine_2
		{
			OFFSET	0	112	-10
			CHANNELS 3  Xrotation Yrotation Zrotation
			JOINT spine_3
			{
				OFFSET	0	206.5	19.3
				CHANNELS 3  Xrotation Yrotation Zrotation
				JOINT spine_4
				{
					OFFSET	0	110.4	14.6
					CHANNELS 3  Xrotation Yrotation Zrotation
					JOINT neck_1
					{
						OFFSET	0	71.8	-50.3
						CHANNELS 3  Xrotation Yrotation Zrotation
						JOINT neck_2
						{
							OFFSET	0	86.2	-25.8
							CHANNELS 3  Xrotation Yrotation Zrotation
							JOINT head_ee
							{
								OFFSET	0	179.8	-8.7
								CHANNELS 3  Xrotation Yrotation Zrotation
								End Site
								{
									OFFSET	1	0	0
								}
							}
						}
					}
					JOINT left_clavicle
					{
						OFFSET	-43.2	22.4	-70.8
						CHANNELS 3  Xrotation Yrotation Zrotation
						JOINT left_shoulder
						{
							OFFSET	-93.9	-5.79999	48.7
							CHANNELS 3  Xrotation Yrotation Zrotation
							JOINT left_elbow
							{
								OFFSET	-291.4	-30.8	15.2
								CHANNELS 3  Xrotation Yrotation Zrotation
								JOINT left_lowarm_twist
								{
									OFFSET	-110.7	-3.89999	13.6
									CHANNELS 3  Xrotation Yrotation Zrotation
									JOINT left_hand
									{
										OFFSET	-110.7	-3.89999	13.6
										CHANNELS 3  Xrotation Yrotation Zrotation
										JOINT left_ee
										{
											OFFSET	-80.8	-5.10001	12.1
											CHANNELS 3  Xrotation Yrotation Zrotation
											End Site
											{
												OFFSET	1	0	0
											}
										}
									}
								}
							}
						}
					}
					JOINT right_clavicle
					{
						OFFSET	43.2	22.4	-70.8
						CHANNELS 3  Xrotation Yrotation Zrotation
						JOINT right_shoulder
						{
							OFFSET	93.9	-5.79999	48.7
							CHANNELS 3  Xrotation Yrotation Zrotation
							JOINT right_elbow
							{
								OFFSET	291.4	-30.8	15.2
								CHANNELS 3  Xrotation Yrotation Zrotation
								JOINT right_lowarm_twist
								{
									OFFSET	110.7	-3.89999	13.6
									CHANNELS 3  Xrotation Yrotation Zrotation
									JOINT right_hand
									{
										OFFSET	110.7	-3.89999	13.6
										CHANNELS 3  Xrotation Yrotation Zrotation
										JOINT right_ee
										{
											OFFSET	80.8	-5.10001	12.1
											CHANNELS 3  Xrotation Yrotation Zrotation
											End Site
											{
												OFFSET	1	0	0
											}
										}
									}
								}
							}
						}
					}
				}
			}
		}
	}
	JOINT left_hip
	{
		OFFSET	-82.8	-127.5	0.300001
		CHANNELS 3  Xrotation Yrotation Zrotation
		JOINT left_knee
		{
			OFFSET	-28.2	-396.7	2.2
			CHANNELS 3  Xrotation Yrotation Zrotation
			JOINT left_ankle
			{
				OFFSET	-11.7	-411.3	35.4
				CHANNELS 3  Xrotation Yrotation Zrotation
				JOINT left_toes
				{
					OFFSET	0	-60	-88.6
					CHANNELS 3  Xrotation Yrotation Zrotation
					JOINT left_foot_ee
					{
						OFFSET	-22.5	-16.5	-42.2
						CHANNELS 3  Xrotation Yrotation Zrotation
						End Site
						{
							OFFSET	1	0	0
						}
					}
				}
			}
		}
	}
	JOINT right_hip
	{
		OFFSET	82.8	-127.5	0.300001
		CHANNELS 3  Xrotation Yrotation Zrotation
		JOINT right_knee
		{
			OFFSET	28.2	-396.7	2.2
			CHANNELS 3  Xrotation Yrotation Zrotation
			JOINT right_ankle
			{
				OFFSET	11.7	-411.3	35.4
				CHANNELS 3  Xrotation Yrotation Zrotation
				JOINT right_toes
				{
					OFFSET	0	-60	-88.6
					CHANNELS 3  Xrotation Yrotation Zrotation
					JOINT right_foot_ee
					{
						OFFSET	22.5	-16.5	-42.2
						CHANNELS 3  Xrotation Yrotation Zrotation
						End Site
						{
							OFFSET	1	0	0
						}
					}
				}
			}
		}
	}
}
MOTION
Frames: 7
Frame Time: 0.02
3077.72 657.367 -621.684 -16.9378 46.7226 11.2112 3.7742 0.511027 1.43731 3.77525 0.418541 1.46691 3.78545 0.201249 1.51211 3.78253 0.437508 1.46137 1.84783 5.40089 -2.07954 1.9928 11.2417 -1.84525 -0.0 0.0 -0.0 5.40675 -10.3463 10.0165 15.9328 10.5575 48.3323 4.03104 -63.3806 2.48932 21.7756 0.246578 -2.75401 7.93824 -16.7714 52.1976 -0.0 0.0 -0.0 11.1987 10.2405 -22.478 -29.7612 -12.7611 -63.7044 0.242034 6.83708 -0.0144581 21.456 -0.250571 2.71338 1.09618 13.2838 -1.73039 0.0 0.0 0.0 -4.49223 41.7596 7.43635 -20.4076 0.29057 3.1017 28.2985 -29.584 -4.56563 -4.38293 0.0 0.0 -0.0 0.0 -0.0 52.193 42.8318 -16.7545 -3.89693 -0.140718 -0.581389 -0.11512 -20.6534 -0.017243 -3.75094 0.0 0.0 0.0 0.0 0.0 
3060.38 658.082 -628.567 -18.0306 47.321 12.0722 3.86527 0.426013 1.35271 3.86623 0.339081 1.37707 3.87387 0.137818 1.41148 3.87127 0.358985 1.37202 1.97258 5.50841 -1.42195 2.09865 10.8727 -1.12109 -0.0 0.0 -0.0 5.74954 -9.49445 10.7812 13.1021 12.6951 47.6202 4.27627 -64.7096 2.70983 21.0971 0.254785 -2.66772 7.90881 -16.2954 52.3421 -0.0 0.0 -0.0 11.3867 9.32907 -22.8977 -28.4228 -12.549 -62.3612 0.249848 7.05564 -0.0154032 22.0062 -0.243557 2.7833 0.992556 12.7476 -1.26578 0.0 0.0 0.0 -3.5822 39.6273 6.84151 -20.9184 0.283591 3.17977 28.0625 -30.4968 -4.58813 -3.81235 0.0 0.0 -0.0 0.0 -0.0 52.1106 42.7405 -16.4331 -4.84239 -0.168868 -0.723757 -1.13883 -20.5088 -0.170864 -3.08287 0.0 0.0 0.0 0.0 0.0 
3033.49 656.477 -643.404 -18.9286 48.6443 13.0561 3.87492 0.56249 1.36725 3.87584 0.474357 1.40026 3.88696 0.268738 1.45379 3.88435 0.494942 1.39312 1.89925 4.60186 -2.65216 2.03748 10.3151 -2.54528 -0.0 0.0 -0.0 5.84653 -7.26907 11.0893 10.4962 11.7699 48.7495 4.92349 -67.6815 3.30218 21.4956 0.250088 -2.71842 8.25511 -17.5558 54.7777 -0.0 0.0 -0.0 11.6451 8.83647 -23.4713 -27.9735 -15.4462 -62.8053 0.265506 7.49294 -0.0173858 22.8468 -0.231544 2.89001 0.802612 13.2371 0.224757 0.0 0.0 0.0 -2.32162 36.2694 5.6535 -23.5129 0.237413 3.57517 31.0153 -29.9403 -4.9289 -2.8233 0.0 0.0 -0.0 0.0 -0.0 50.846 42.6747 -16.1016 -5.11575 -0.176568 -0.765001 2.66949 -20.1619 0.396507 -2.35388 0.0 0.0 0.0 0.0 0.0 
3004.9 657.984 -655.164 -19.4379 49.3035 13.6887 3.80611 0.497263 1.24367 3.80688 0.417124 1.27278 3.81576 0.228709 1.31971 3.8136 0.434246 1.26705 1.57735 4.53435 -2.64749 1.70921 10.2019 -2.51695 -0.0 0.0 -0.0 6.01774 -5.63455 11.5067 7.95296 11.5849 49.3734 5.12338 -68.4693 3.48762 21.5408 0.249534 -2.72416 8.38113 -18.0527 55.6309 -0.0 0.0 -0.0 11.6697 9.02589 -23.5279 -27.7391 -14.8553 -62.9625 0.280776 7.91855 -0.0194333 22.9747 -0.229579 2.90623 0.790983 13.1931 0.284013 0.0 0.0 0.0 -2.54678 35.8226 5.27462 -24.3878 0.217807 3.70801 30.9444 -30.0457 -4.92675 -3.09997 0.0 0.0 -0.0 0.0 -0.0 49.8273 42.8351 -15.6109 -6.15881 -0.204139 -0.922698 2.69202 -20.698 0.400636 -2.11717 0.0 0.0 0.0 0.0 0.0 
2981.12 662.462 -662.382 -19.7278 49.2421 13.9307 3.83751 0.400947 1.11645 3.83814 0.329096 1.13969 3.84436 0.161413 1.17522 3.8426 0.344979 1.13499 1.34268 4.35 -2.5659 1.46243 9.81539 -2.4223 -0.0 0.0 -0.0 6.16661 -3.72039 11.8702 4.80803 12.4413 50.8513 5.39878 -69.4711 3.74469 22.0515 0.242949 -2.78906 8.72402 -19.5814 57.7478 -0.0 0.0 -0.0 11.7777 9.52072 -23.7732 -27.2851 -14.4896 -62.7155 0.289105 8.15033 -0.0205974 23.5222 -0.220758 2.97561 0.74582 12.7138 0.38098 0.0 0.0 0.0 -2.94841 36.8359 5.44058 -24.3754 0.2181 3.70613 30.4699 -31.0099 -4.9289 -3.26298 0.0 0.0 -0.0 0.0 -0.0 49.7451 42.8268 -15.871 -8.46322 -0.254841 -1.27267 3.09125 -20.6436 0.459496 -1.40303 0.0 0.0 0.0 0.0 0.0 
2949.4 671.996 -672.505 -17.0438 49.3587 11.0724 3.41445 0.610146 1.30583 3.41525 0.525824 1.342 3.42728 0.316766 1.40609 3.42492 0.534837 1.33844 -0.374264 3.99376 -3.26729 -0.258195 9.78981 -3.06695 -0.0 0.0 -0.0 6.63559 -1.93036 12.8521 2.95093 13.323 52.1684 4.15532 -64.07 2.60076 17.7688 0.280214 -2.24343 8.73573 -18.7645 58.8649 -0.0 0.0 -0.0 12.0422 10.2567 -24.3719 -22.3124 -14.8132 -61.8298 0.347781 9.77518 -0.0297395 24.3804 -0.205599 3.08419 0.498218 11.762 1.64007 0.0 0.0 0.0 0.105658 33.508 4.48624 -30.0104 0.0436669 4.55299 33.147 -29.4158 -5.14997 -2.99749 0.0 0.0 -0.0 0.0 -0.0 46.9131 42.7714 -15.8076 -13.1385 -0.314275 -1.98739 6.51496 -20.2661 0.958144 -0.210195 0.0 0.0 0.0 0.0 0.0 
2924.21 675.823 -679.826 -15.3346 48.6933 9.51618 3.1114 0.459771 1.37684 3.11238 0.371236 1.4033 3.12119 0.146923 1.44411 3.11848 0.373126 1.4028 -1.59836 3.71982 -3.67901 -1.48829 9.63254 -3.42591 -0.0 0.0 -0.0 6.71387 0.29139 13.0264 -0.986913 14.3921 53.2788 3.36784 -59.0476 1.90765 15.0276 0.282628 -1.89335 8.91401 -19.0276 60.6919 -0.0 0.0 -0.0 12.0746 11.23 -24.4434 -18.998 -13.6251 -60.9822 0.387691 10.8715 -0.0368918 24.8824 -0.195979 3.14759 0.351738 10.843 2.23482 0.0 0.0 0.0 2.21436 32.1954 3.60763 -35.0415 -0.181807 5.29179 33.1611 -28.8574 -5.117 -3.34766 0.0 0.0 -0.0 0.0 -0.0 45.9784 42.1241 -16.8646 -17.981 -0.314205 -2.73015 9.03067 -20.5117 1.31942 0.981116 -0.0 -0.0 0.0 0.0 0.0 
